<?xml version="1.0" encoding="UTF-8"?>
<svg id="Layer_1" xmlns="http://www.w3.org/2000/svg" viewBox="0 0 1080 1080">
  <defs>
    <style>
      .cls-1 {
        fill: #036ef2;
      }

      .cls-2 {
        fill: #212121;
      }
    </style>
  </defs>
  <path class="cls-1" d="M465.17,506.67c-14.13-.71-26.45,7.38-31.98,19.26-1.48,3.17-4.67,5.19-8.17,5.19h-.07c-3.47,0-6.68-1.96-8.14-5.11-3.33-7.2-9.14-13-16.34-16.32-3.15-1.45-5.11-4.66-5.11-8.13v-.04c0-3.5,2.02-6.69,5.2-8.17,11.9-5.52,19.99-17.85,19.29-31.98-.85-17.04-14.7-30.84-31.74-31.63-19.15-.89-34.96,14.38-34.96,33.34,0,13.45,7.96,25.03,19.42,30.31,3.15,1.45,5.11,4.66,5.11,8.13v.04c0,3.5-2.02,6.69-5.2,8.17-11.9,5.52-19.99,17.85-19.29,31.98.85,17,14.63,30.78,31.63,31.62,14.14.7,26.47-7.41,31.99-19.32,1.47-3.18,4.67-5.21,8.17-5.21h0c3.47,0,6.69,1.97,8.14,5.12,5.28,11.48,16.87,19.45,30.33,19.45,18.96,0,34.22-15.81,33.34-34.96-.79-17.04-14.58-30.89-31.62-31.74Z"/>
  <path class="cls-1" d="M266.08,538.29c-.85-16.99-14.62-30.76-31.61-31.62-14.23-.72-26.62,7.49-32.1,19.51-1.38,3.03-4.44,4.94-7.77,4.94h-.63c-3.33,0-6.39-1.91-7.77-4.94-5.48-12.02-17.87-20.23-32.1-19.51-16.99.85-30.76,14.63-31.61,31.62-.71,14.13,7.38,26.45,19.27,31.98,3.18,1.48,5.21,4.68,5.21,8.19h0c0,3.52-2.03,6.72-5.21,8.2-11.89,5.53-19.98,17.84-19.27,31.97.85,17.04,14.7,30.84,31.74,31.63,19.15.89,34.96-14.38,34.96-33.34,0-13.44-7.95-25.02-19.4-30.31-3.16-1.46-5.13-4.68-5.13-8.16h0c0-3.48,1.97-6.7,5.13-8.15,7.22-3.33,13.04-9.16,16.36-16.38,1.42-3.09,4.45-5.13,7.86-5.13h.56c3.4,0,6.44,2.03,7.86,5.13,3.32,7.22,9.14,13.05,16.36,16.38,3.16,1.46,5.13,4.68,5.13,8.15h0c0,3.52-2.03,6.72-5.21,8.2-11.89,5.53-19.98,17.84-19.27,31.97.85,17.04,14.7,30.84,31.74,31.63,19.15.89,34.96-14.38,34.96-33.34,0-13.44-7.95-25.02-19.4-30.31-3.16-1.46-5.13-4.68-5.13-8.16h0c0-3.52,2.03-6.72,5.21-8.2,11.89-5.53,19.98-17.85,19.27-31.98Z"/>
  <path class="cls-1" d="M342.97,386.15c0-18.96-15.81-34.22-34.96-33.34-17.04.79-30.89,14.59-31.74,31.63-.7,14.13,7.39,26.46,19.29,31.98,3.18,1.48,5.2,4.67,5.2,8.17v.04c0,3.47-1.96,6.68-5.11,8.13-11.46,5.28-19.42,16.87-19.42,30.31s7.96,25.03,19.42,30.31c3.15,1.45,5.11,4.66,5.11,8.13v.03c0,3.47-1.96,6.68-5.11,8.13-11.46,5.28-19.42,16.87-19.42,30.31s7.96,25.03,19.42,30.31c3.15,1.45,5.11,4.66,5.11,8.13v.03c0,3.47-1.96,6.68-5.11,8.13-11.46,5.28-19.42,16.87-19.42,30.31s7.96,25.03,19.42,30.31c3.15,1.45,5.11,4.66,5.11,8.13v.04c0,3.5-2.02,6.69-5.2,8.17-11.9,5.52-19.99,17.85-19.29,31.98.85,17.04,14.7,30.84,31.74,31.63,19.15.89,34.96-14.38,34.96-33.34,0-13.45-7.96-25.03-19.42-30.31-3.15-1.45-5.11-4.66-5.11-8.13v-.03c0-3.47,1.96-6.68,5.11-8.13,11.46-5.28,19.42-16.87,19.42-30.31s-7.96-25.03-19.42-30.31c-3.15-1.45-5.11-4.66-5.11-8.13v-.03c0-3.47,1.96-6.68,5.11-8.13,11.46-5.28,19.42-16.87,19.42-30.31s-7.96-25.03-19.42-30.31c-3.15-1.45-5.11-4.66-5.11-8.13v-.03c0-3.47,1.96-6.68,5.11-8.13,11.46-5.28,19.42-16.87,19.42-30.31s-7.96-25.03-19.42-30.31c-3.15-1.45-5.11-4.66-5.11-8.13v-.03c0-3.47,1.96-6.68,5.11-8.13,11.46-5.28,19.42-16.87,19.42-30.31Z"/>
  <g>
    <path class="cls-2" d="M526.92,521.46c-.16-1.06.67-1.99,1.74-1.99h163.02c.97,0,1.76.79,1.76,1.76v33.49c0,.97-.79,1.76-1.76,1.76h-56.47c-.97,0-1.76.79-1.76,1.76v159.62c0,.97-.79,1.76-1.76,1.76h-40.49c-.97,0-1.76-.79-1.76-1.76v-159.62c0-.97-.79-1.76-1.76-1.76h-51.06c-1.07,0-1.9-.93-1.74-1.99l-7.97-33.02Z"/>
    <path class="cls-2" d="M721.92,519.48h41.43c.71,0,1.29.58,1.29,1.29v197.56c0,.71-.58,1.29-1.29,1.29h-41.43c-.71,0-1.29-.58-1.29-1.29v-197.56c0-.71.58-1.29,1.29-1.29Z"/>
    <path class="cls-2" d="M830.4,653.18c.72,0,1.29.6,1.31,1.33.68,25.64,21.12,35.67,44.27,35.67,15.41,0,38.96-4.48,38.96-24.95,0-21.58-29.99-25.23-59.42-33.07-29.71-7.85-59.7-19.34-59.7-56.9,0-40.92,38.68-60.54,74.84-60.54,41.32,0,79.35,17.84,80.15,63.02.01.77-.63,1.45-1.4,1.45h-39.96c-.7,0-1.26-.57-1.32-1.26-1.92-23.06-18.78-29.01-39.43-29.01-14.01,0-30.27,5.88-30.27,22.7,0,15.42,9.53,17.38,59.7,30.27,14.58,3.64,59.42,12.89,59.42,58.3,0,36.72-28.87,64.18-83.24,64.18-43.86,0-84.97-21.44-85.21-69.77,0-.76.63-1.42,1.4-1.42h39.92Z"/>
  </g>
</svg>